# AST/ASF file generated using VICON BodyLanguage
# -----------------------------------------------
:version 1.10
:name VICON
:units
  mass 1.0
  length 0.45
  angle deg
:documentation
   .ast/.asf automatically generated from VICON data using
   VICON BodyBuilder and BodyLanguage model FoxedUp or BRILLIANT.MOD
:root
   order TX TY TZ RX RY RZ
   axis XYZ
   position 0 0 0  
   orientation 0 0 0 
:bonedata
  begin
     id 1 
     name lhipjoint
     direction 0.547975 -0.797114 0.253638 
     length 2.36201 
     axis 0 0 0  XYZ
  end
  begin
     id 2 
     name lfemur
     direction 0.34202 -0.939693 0  
     length 7.69075  
     axis 0 0 20  XYZ
    dof rx ry rz
    limits (-160.0 20.0)
           (-70.0 70.0)
           (-60.0 70.0)
  end
  begin
     id 3 
     name ltibia
     direction 0.34202 -0.939693 0   
     length 7.91399   
     axis 0 0 20   XYZ
    dof rx
    limits (-10.0 170.0)
  end
  begin
     id 4 
     name lfoot
     direction 0.0705293 -0.193778 0.978507   
     length 2.13618   
     axis -90 7.62852e-016 20   XYZ
    dof rx rz
    limits (-45.0 90.0)
           (-70.0 20.0)
  end
  begin
     id 5 
     name ltoes
     direction 1.53592e-011 -4.21925e-011 1   
     length 1.07518   
     axis -90 7.62852e-016 20   XYZ
    dof rx
    limits (-90.0 20.0)
  end
  begin
     id 6 
     name rhipjoint
     direction -0.57 -0.782963 0.249136   
     length 2.4047  
     axis 0 0 0  XYZ 
  end
  begin
     id 7 
     name rfemur
     direction -0.34202 -0.939693 0   
     length 7.51486   
     axis 0 0 -20   XYZ
    dof rx ry rz
    limits (-160.0 20.0)
           (-70.0 70.0)
           (-70.0 60.0)
  end
  begin
     id 8 
     name rtibia
     direction -0.34202 -0.939693 0   
     length 8.08317   
     axis 0 0 -20   XYZ
    dof rx
    limits (-10.0 170.0)
 end
 begin
     id 9 
     name rfoot
     direction -0.104954 -0.281256 0.953876   
     length 2.30343  
     axis -90 -7.62852e-016 -20   XYZ
    dof rx rz
    limits (-45.0 90.0)
           (-20.0 70.0)
  end
  begin
     id 10 
     name rtoes
     direction -1.53556e-011 -4.21922e-011 1   
     length 1.14803   
     axis -90 -7.62852e-016 -20   XYZ
    dof rx
    limits (-90.0 20.0)
  end
  begin
     id 11 
     name lowerback
     direction -0.0152855 0.99353 -0.11254   
     length 2.05311   
     axis 0 0 0   XYZ
    dof rx ry rz
    limits (-20.0 45.0)
           (-30.0 30.0)
           (-30.0 30.0)
  end
  begin
     id 12 
     name upperback
     direction -0.00157509 0.999443 -0.033332   
     length 2.06353   
     axis 0 0 0   XYZ
    dof rx ry rz
    limits (-20.0 45.0)
           (-30.0 30.0)
           (-30.0 30.0)
  end
  begin
     id 13 
     name thorax
     direction 0.00577788 0.999804 0.0189484   
     length 2.08472   
     axis 0 0 0   XYZ
    dof rx ry rz
    limits (-20.0 45.0)
           (-30.0 30.0)
           (-30.0 30.0)
  end
  begin
     id 14 
     name lowerneck
     direction -1.09301e-005 0.994719 0.10264   
     length 1.76249   
     axis 0 0 0   XYZ
    dof rx ry rz
    limits (-20.0 45.0)
           (-30.0 30.0)
           (-30.0 30.0)
  end
  begin
     id 15 
     name upperneck
     direction 0.0495018 0.988526 -0.142706   
     length 1.77897   
     axis 0 0 0   XYZ
    dof rx ry rz
    limits (-20.0 45.0)
           (-30.0 30.0)
           (-30.0 30.0)
  end
  begin
     id 16
     name head
     direction 0.0142736 0.998114 -0.0597101  
     length 1.78934  
     axis 0 0 0   XYZ
    dof rx ry rz
    limits (-20.0 45.0)
           (-30.0 30.0)
           (-30.0 30.0)
  end
  begin
     id 17 
     name lclavicle
     direction 0.918111 0.396107 -0.0130883  
     length 3.37276  
     axis 0 0 0   XYZ
    dof ry rz
    limits (-20.0 10.0)
           (0.0 20.0)
  end
  begin
     id 18 
     name lhumerus
     direction 1 -4.48975e-011 -3.26108e-027   
     length 5.34298   
     axis 180 -30 -90   XYZ
    dof rx ry rz
    limits (-60.0 90.0)
           (-90.0 90.0)
           (-90.0 90.0)
  end
  begin
     id 19
     name lradius
     direction 1 -4.48964e-011 -8.84413e-028   
     length 3.67262   
     axis 180 -30 -90   XYZ
    dof rx
    limits (-10.0 170.0)
  end
  begin
     id 20
     name lwrist
     direction 1 -4.48991e-011 -1.24264e-027   
     length 1.83631   
     axis -2.17013e-015 90 90   XYZ
    dof ry
    limits (-180.0 0.0)
 end
  begin
     id 21 
     name lhand
     direction 1 -4.48855e-011 -2.48528e-027   
     length 0.599298   
     axis 1.58582e-015 90 90   XYZ
    dof rx rz
    limits (-90.0 90.0)
           (-45.0 45.0)
  end
  begin
     id 22 
     name lfingers
     direction 1 -4.48811e-011 -4.97056e-027   
     length 0.48317   
     axis 3.17164e-015 90 90   XYZ
    dof rx
    limits (0.0 90.0)
  end
  begin
     id 23
     name lthumb
     direction 0.707107 -6.34882e-011 0.707107   
     length 0.693738   
     axis -90 45 2.85299e-015   XYZ
    dof rx rz
    limits (-45.0 45.0)
           (-45.0 45.0)
  end
  begin
     id 24 
     name rclavicle
     direction -0.920511 0.384752 -0.0680135   
     length 3.43787  
     axis 0 0 0   XYZ 
    dof ry rz
    limits (-10.0 20.0)
           (-20.0 0.0)
  end
  begin
     id 25 
     name rhumerus
     direction -0.999976 -0.00330524 0.00603274  
     length 5.5498   
     axis 180 30 90   XYZ
    dof rx ry rz
    limits (-90.0 60.0)
           (-90.0 90.0)
           (-90.0 90.0)
  end
  begin
     id 26 
     name rradius
     direction -1 -4.48967e-011 8.62438e-027   
     length 3.69401   
     axis 180 30 90   XYZ
    dof rx
    limits (-10.0 170.0)
  end
  begin
     id 27 
     name rwrist
     direction -1 -4.4897e-011 9.54866e-027   
     length 1.84701   
     axis -7.69462e-015 -90 -90   XYZ
    dof ry
    limits (-180.0 0.0)
  end
  begin
     id 28
     name rhand
     direction -1 -4.48982e-011 1.90973e-026   
     length 0.638113   
     axis -1.21857e-014 -90 -90   XYZ
    dof rx rz
    limits (-90.0 90.0)
           (-45.0 45.0)
  end
  begin
     id 29
     name rfingers
     direction -1 -4.48936e-011 3.81946e-026   
     length 0.514463   
     axis -2.43714e-014 -90 -90   XYZ
    dof rx
    limits (0.0 90.0)
  end
  begin
     id 30
     name rthumb
     direction -0.707107 -6.34942e-011 0.707107   
     length 0.738669   
     axis -90 -45 -2.85299e-015   XYZ
    dof rx rz
    limits (-45.0 45.0)
           (-45.0 45.0)
  end
:hierarchy
  begin
    root lhipjoint rhipjoint lowerback
    lhipjoint lfemur
    lfemur ltibia
    ltibia lfoot
    lfoot ltoes
    rhipjoint rfemur
    rfemur rtibia
    rtibia rfoot
    rfoot rtoes
    lowerback upperback
    upperback thorax
    thorax lowerneck lclavicle rclavicle
    lowerneck upperneck
    upperneck head
    lclavicle lhumerus
    lhumerus lradius
    lradius lwrist
    lwrist lhand lthumb
    lhand lfingers
    rclavicle rhumerus
    rhumerus rradius
    rradius rwrist
    rwrist rhand rthumb
    rhand rfingers
  end

#!OML:ASF F:\twosubjects\two\Thursday\Session 1\Rory.ASF
:FULLY-SPECIFIED
:DEGREES
152
root 9.38895 13.3884 5.06698 -122.532 -85.7679 101.559
lowerback 38.6675 1.55663 -0.188116
upperback 14.3362 -0.263589 -0.620088
thorax -3.00215 -0.985224 -0.416741
lowerneck -16.6228 -2.70486 -6.85331
upperneck 29.2462 -3.82943 4.42275
head 12.7099 -2.06844 2.23124
rclavicle 1.39149e-015 9.74045e-015
rhumerus 4.5454 21.7807 -81.479
rradius 55.7311
rwrist 16.2176
rhand -32.448 37.1928
rfingers 7.12502
rthumb -5.68131 7.28901
lclavicle 1.39149e-015 9.74045e-015
lhumerus 7.81257 -31.3731 76.6624
lradius 51.9642
lwrist -26.4415
lhand -23.4051 30.6012
lfingers 7.12502
lthumb 3.05184 60.5591
rfemur -48.9567 -7.16568 6.69083
rtibia 65.1279
rfoot 8.29981 -7.09897
rtoes 9.19671
lfemur -46.7884 6.40279 -13.6875
ltibia 59.9954
lfoot 10.4421 2.87732
ltoes 27.7944
153
root 9.39712 13.3728 5.0636 -121.627 -85.7161 100.382
lowerback 38.8822 1.49403 -0.084283
upperback 14.3897 -0.339766 -0.827019
thorax -3.01232 -1.01656 -0.66072
lowerneck -16.444 -2.78837 -6.94913
upperneck 29.3857 -4.07257 4.7823
head 12.7569 -2.1481 2.3507
rclavicle -5.46658e-015 -1.45113e-014
rhumerus 4.52006 22.0042 -81.4092
rradius 55.9177
rwrist 15.8311
rhand -32.9716 37.1664
rfingers 7.12502
rthumb -6.18684 7.2767
lclavicle -5.46658e-015 -1.45113e-014
lhumerus 7.96294 -31.704 76.0966
lradius 52.1707
lwrist -26.0446
lhand -23.3135 31.2134
lfingers 7.12502
lthumb 3.14038 61.1701
rfemur -48.7443 -7.10296 6.57322
rtibia 65.1102
rfoot 8.46837 -5.34254
rtoes -1.95637
lfemur -46.5805 6.50408 -13.8553
ltibia 59.9611
lfoot 10.5805 3.16911
ltoes 28.2528
154
root 9.40481 13.3512 5.07014 -120.164 -86.0161 98.9997
lowerback 38.974 1.39506 0.0236836
upperback 14.1939 -0.377394 -0.619663
thorax -3.25464 -1.02729 -0.481602
lowerneck -16.5716 -2.83863 -7.59302
upperneck 30.1287 -4.14716 5.18287
head 13.1237 -2.2195 2.61585
rclavicle -5.76476e-015 1.35174e-014
rhumerus 4.18464 22.3716 -81.1423
rradius 56.1202
rwrist 15.5245
rhand -33.5541 37.0894
rfingers 7.12502
rthumb -6.74918 7.21696
lclavicle -5.76476e-015 1.35174e-014
lhumerus 7.68735 -31.6926 76.4356
lradius 52.2378
lwrist -26.1751
lhand -23.0577 32.041
lfingers 7.12502
lthumb 3.38737 61.9939
rfemur -48.8861 -7.47063 6.84082
rtibia 65.0651
rfoot 8.52542 -4.69589
rtoes -5.93522
lfemur -46.8632 6.4283 -13.7577
ltibia 59.971
lfoot 10.769 3.10179
ltoes 26.9023
155
root 9.40707 13.3357 5.07526 -118.48 -86.2809 97.4098
lowerback 38.7518 1.01068 0.550151
upperback 14.2126 -0.67166 -0.914596
thorax -3.17223 -1.13201 -0.963369
lowerneck -16.6936 -2.78736 -7.69429
upperneck 30.5471 -4.21135 5.5804
head 13.3426 -2.21842 2.78639
rclavicle 6.95746e-016 5.96354e-016
rhumerus 4.21081 22.1651 -81.8636
rradius 55.8689
rwrist 15.9789
rhand -33.811 36.9915
rfingers 7.12502
rthumb -6.99713 7.12719
lclavicle 6.95746e-016 5.96354e-016
lhumerus 7.56026 -31.5915 76.053
lradius 52.3724
lwrist -26.2448
lhand -22.7736 32.2861
lfingers 7.12502
lthumb 3.6617 62.2344
rfemur -48.9694 -7.91901 7.18764
rtibia 64.997
rfoot 8.75818 -4.13956
rtoes -10.6575
lfemur -47.1248 6.27895 -13.6137
ltibia 60.0252
lfoot 10.844 2.79756
ltoes 25.3962
156
root 9.41396 13.3341 5.07024 -121.264 -86.2179 99.8832
lowerback 39.0576 1.01574 0.44847
upperback 14.2372 -0.739422 -1.04379
thorax -3.24391 -1.17484 -1.01961
lowerneck -16.475 -2.69664 -7.6495
upperneck 30.4815 -4.13074 5.63175
head 13.26 -2.17701 2.81161
rclavicle -5.96354e-015 -7.55382e-015
rhumerus 4.3309 22.0872 -82.4788
rradius 55.4566
rwrist 16.3376
rhand -34.0299 36.8982
rfingers 7.12502
rthumb -7.20845 7.04097
lclavicle -5.96354e-015 -7.55382e-015
lhumerus 7.21566 -31.0838 76.1596
lradius 52.464
lwrist -26.1895
lhand -22.8921 32.0129
lfingers 7.12502
lthumb 3.54729 61.9631
rfemur -48.6144 -7.7481 7.27547
rtibia 64.8912
rfoot 8.88725 -3.89643
rtoes -12.792
lfemur -46.7272 6.46973 -13.5478
ltibia 60.0211
lfoot 10.8501 1.75101
ltoes 21.2306
157
root 9.4266 13.3382 5.06948 -123.182 -86.0933 101.492
lowerback 39.3162 1.11432 0.201554
upperback 14.3361 -0.744934 -1.0407
thorax -3.21421 -1.20277 -0.885559
lowerneck -16.2669 -2.64412 -7.52945
upperneck 30.2316 -4.01153 5.40615
head 13.092 -2.1388 2.71722
rclavicle -5.76476e-015 1.38155e-014
rhumerus 4.47469 22.0722 -82.7057
rradius 55.2814
rwrist 16.7021
rhand -34.4286 36.9091
rfingers 7.12502
rthumb -7.59326 7.06542
lclavicle -5.76476e-015 1.38155e-014
lhumerus 7.12059 -30.6888 76.2345
lradius 52.5316
lwrist -25.8052
lhand -22.8665 32.1423
lfingers 7.12502
lthumb 3.57205 62.0921
rfemur -48.2652 -7.48083 7.11507
rtibia 64.8348
rfoot 8.90304 -4.15814
rtoes -9.625
lfemur -46.2836 6.56487 -13.5578
ltibia 59.9392
lfoot 10.8381 0.948531
ltoes 17.5942
158
root 9.43637 13.3332 5.07172 -123.226 -86.0107 101.451
lowerback 39.1831 1.27102 -0.198354
upperback 14.529 -0.712769 -0.881885
thorax -2.95661 -1.22377 -0.528319
lowerneck -16.2107 -2.65259 -7.60146
upperneck 29.9766 -3.94855 5.31481
head 12.9688 -2.12481 2.70005
rclavicle -3.27995e-015 7.95139e-015
rhumerus 4.74859 22.0665 -82.5539
rradius 55.3238
rwrist 17.059
rhand -34.2526 37.0226
rfingers 7.12502
rthumb -7.42341 7.17285
lclavicle -3.27995e-015 7.95139e-015
lhumerus 7.23899 -30.4306 76.1797
lradius 52.7137
lwrist -25.3571
lhand -22.8184 32.5136
lfingers 7.12502
lthumb 3.61847 62.4626
rfemur -48.2166 -7.38418 7.00911
rtibia 64.8327
rfoot 8.99533 -4.13925
rtoes -9.46399
lfemur -46.1666 6.55726 -13.6283
ltibia 59.8232
lfoot 10.673 3.67117
ltoes 28.7349
159
root 9.45012 13.334 5.06922 -124.779 -85.887 103.035
lowerback 38.9676 1.50082 -0.742619
upperback 14.6577 -0.6262 -0.695668
thorax -2.7437 -1.22236 -0.0862065
lowerneck -16.3476 -2.61377 -7.91245
upperneck 30.0956 -3.84333 5.46302
head 13.0496 -2.09561 2.83085
rclavicle 5.06901e-015 1.39149e-015
rhumerus 5.05328 22.1821 -82.3581
rradius 55.293
rwrist 17.1134
rhand -33.6629 37.2645
rfingers 7.12502
rthumb -6.85415 7.39544
lclavicle 5.06901e-015 1.39149e-015
lhumerus 7.12635 -29.8527 76.5193
lradius 52.8338
lwrist -25.6181
lhand -22.8805 32.9552
lfingers 7.12502
lthumb 3.55849 62.9053
rfemur -48.3483 -7.09326 6.84939
rtibia 64.8942
rfoot 8.78318 -5.213
rtoes -2.2785
lfemur -46.126 6.72073 -13.6775
ltibia 59.6899
lfoot 10.9003 2.41064
ltoes 22.3967
160
root 9.45895 13.337 5.06427 -125.559 -85.8036 103.83
lowerback 38.9215 1.58833 -0.94959
upperback 14.6552 -0.592256 -0.700315
thorax -2.73161 -1.21489 0.00370767
lowerneck -16.4456 -2.58141 -8.08392
upperneck 30.4272 -3.79943 5.55258
head 13.2116 -2.09302 2.90895
rclavicle 7.15625e-015 2.0276e-014
rhumerus 5.03726 22.0755 -82.4021
rradius 55.2869
rwrist 17.1283
rhand -33.1919 37.2845
rfingers 7.12502
rthumb -6.39944 7.40114
lclavicle 7.15625e-015 2.0276e-014
lhumerus 6.91114 -29.5157 76.7344
lradius 52.9354
lwrist -25.9917
lhand -22.7468 33.3795
lfingers 7.12502
lthumb 3.68759 63.3274
rfemur -48.4202 -6.90866 6.74238
rtibia 64.9519
rfoot 8.40303 -7.442
rtoes 11.068
lfemur -46.0982 6.88345 -13.7301
ltibia 59.6082
lfoot 10.9958 1.74194
ltoes 19.6189
161
root 9.45839 13.3272 5.06709 -123.78 -85.7687 102.036
lowerback 39.1452 1.51737 -0.978754
upperback 14.5063 -0.687505 -0.797447
thorax -2.9656 -1.25 -0.0451846
lowerneck -16.2978 -2.61391 -8.19752
upperneck 30.568 -3.88263 5.65695
head 13.2515 -2.13804 2.95944
rclavicle -2.98177e-015 -4.87022e-015
rhumerus 4.69335 21.9959 -82.609
rradius 55.4693
rwrist 17.2206
rhand -33.1981 37.0489
rfingers 7.12502
rthumb -6.40551 7.16573
lclavicle -2.98177e-015 -4.87022e-015
lhumerus 6.53092 -29.4603 76.7094
lradius 53.2565
lwrist -25.8302
lhand -22.3407 33.6156
lfingers 7.12502
lthumb 4.07979 63.5563
rfemur -48.4244 -7.13127 6.78229
rtibia 64.9105
rfoot 9.09612 -5.42537
rtoes -2.30447
lfemur -46.1415 6.79346 -13.8305
ltibia 59.5974
lfoot 10.9335 1.76015
ltoes 20.5886
162
root 9.46031 13.3195 5.07496 -122.011 -85.7495 100.311
lowerback 39.1691 1.3879 -0.839514
upperback 14.4692 -0.80038 -0.946865
thorax -3.01699 -1.28835 -0.233622
lowerneck -16.0979 -2.77021 -8.2492
upperneck 30.4733 -4.16151 5.81007
head 13.1989 -2.24824 2.98246
rclavicle 7.50412e-015 -1.88845e-015
rhumerus 4.50763 21.9555 -82.746
rradius 55.6903
rwrist 17.2927
rhand -33.9268 36.8662
rfingers 7.12502
rthumb -7.10895 7.00562
lclavicle 7.50412e-015 -1.88845e-015
lhumerus 6.29726 -29.4022 76.6706
lradius 53.5577
lwrist -25.5451
lhand -22.1292 33.4461
lfingers 7.12502
lthumb 4.284 63.3828
rfemur -48.4868 -7.4503 6.76944
rtibia 64.8331
rfoot 9.44567 -6.05742
rtoes 1.24347
lfemur -46.2467 6.648 -13.9197
ltibia 59.6015
lfoot 10.6628 4.34922
ltoes 31.793
